<svg xmlns="http://www.w3.org/2000/svg" xmlns:xlink="http://www.w3.org/1999/xlink" id="Layer_1" x="0px" y="0px" viewBox="0 0 468 83" style="enable-background:new 0 0 468 83;" xml:space="preserve"><style type="text/css">	.st0{fill:#3702B3;}</style><g>	<path class="st0" d="M355.7,18.4c1.4-0.8,3.2-0.8,4.6,0L378.8,29c1.4,0.8,2.3,2.4,2.3,4v21.3c0,1.7-0.9,3.2-2.3,4l-18.4,10.6  c-1.4,0.8-3.2,0.8-4.6,0l-18.4-10.6c-1.4-0.8-2.3-2.4-2.3-4V33c0-1.7,0.9-3.2,2.3-4L355.7,18.4z M324.2,63.2L324.2,63.2  c1.3,2.3,3.2,4.2,5.5,5.5l20.8,12c2.3,1.3,4.9,2,7.5,2l0,0c2.6,0,5.3-0.7,7.5-2l20.8-12c2.3-1.3,4.2-3.2,5.5-5.5v0  c1.3-2.3,2-4.9,2-7.5v-24c0-2.6-0.7-5.3-2-7.5v0c-1.3-2.3-3.2-4.2-5.5-5.5l-20.8-12c-2.3-1.3-4.9-2-7.5-2l0,0c-2.6,0-5.3,0.7-7.5,2  l-20.8,12c-2.3,1.3-4.2,3.2-5.5,5.5l0,0c-1.3,2.3-2,4.9-2,7.5v24C322.2,58.3,322.9,60.9,324.2,63.2z"></path>	<path class="st0" d="M220.1,29.3v25c0,1.7-0.9,3.2-2.3,4l-18.4,10.6c-1.4,0.8-3.2,0.8-4.6,0l-18.4-10.6c-1.4-0.8-2.3-2.4-2.3-4v-25  c0-1.8-1.4-3.2-3.2-3.2h-6.5c-1.8,0-3.2,1.4-3.2,3.2v26.4c0,2.6,0.7,5.3,2,7.5s3.2,4.2,5.5,5.5l20.8,12c2.3,1.3,4.9,2,7.5,2  s5.3-0.7,7.5-2l20.8-12c2.3-1.3,4.2-3.2,5.5-5.5l0,0c1.3-2.3,2-4.9,2-7.5V29.3c0-1.8-1.4-3.2-3.2-3.2h-6.5  C221.5,26.1,220.1,27.5,220.1,29.3z"></path>	<path class="st0" d="M275.2,18.4c1.4-0.8,3.2-0.8,4.6,0L298.3,29c1.4,0.8,2.3,2.4,2.3,4v21.3c0,1.7-0.9,3.2-2.3,4l-18.4,10.6  c-1.4,0.8-3.2,0.8-4.6,0l-18.4-10.6c-1.4-0.8-2.3-2.4-2.3-4V33c0-1.7,0.9-3.2,2.3-4L275.2,18.4z M243.7,63.2L243.7,63.2  c1.3,2.3,3.2,4.2,5.5,5.5l20.8,12c2.3,1.3,4.9,2,7.5,2h0c2.6,0,5.3-0.7,7.5-2l20.8-12c2.3-1.3,4.2-3.2,5.5-5.5l0,0  c1.3-2.3,2-4.9,2-7.5v-24c0-2.6-0.7-5.3-2-7.5l0,0c-1.3-2.3-3.2-4.2-5.5-5.5l-20.8-12c-2.3-1.3-4.9-2-7.5-2h0c-2.6,0-5.3,0.7-7.5,2  l-20.8,12c-2.3,1.3-4.2,3.2-5.5,5.5l0,0c-1.3,2.3-2,4.9-2,7.5v24C241.7,58.3,242.4,60.9,243.7,63.2z"></path>	<path class="st0" d="M139.6,58V33c0-1.7-0.9-3.2-2.3-4l-18.4-10.6c-1.4-0.8-3.2-0.8-4.6,0L95.8,29c-1.4,0.8-2.3,2.4-2.3,4v25  c0,1.8-1.4,3.2-3.2,3.2h-6.5c-1.8,0-3.2-1.4-3.2-3.2V31.7c0-2.6,0.7-5.3,2-7.5s3.2-4.2,5.5-5.5l20.8-12c2.3-1.3,4.9-2,7.5-2  s5.3,0.7,7.5,2l20.8,12c2.3,1.3,4.2,3.2,5.5,5.5l0,0c1.3,2.3,2,4.9,2,7.5V58c0,1.8-1.4,3.2-3.2,3.2h-6.5  C141,61.2,139.6,59.8,139.6,58z"></path>	<path class="st0" d="M69.9,24.1c-1.3-2.3-3.2-4.2-5.5-5.5l-20.8-12c-2.3-1.3-4.9-2-7.5-2s-5.3,0.7-7.5,2l-20.8,12  c-2.3,1.3-4.2,3.2-5.5,5.5s-2,4.9-2,7.5V58c0,1.8,1.4,3.2,3.2,3.2h6.5c1.8,0,3.2-1.4,3.2-3.2V45.2c0-0.4,0.3-0.6,0.6-0.6h18.6  c1.8,0,3.2-1.4,3.2-3.2v-4.5c0-1.8-1.4-3.2-3.2-3.2H13.6c-0.4,0-0.6-0.3-0.6-0.6v0c0-1.7,0.9-3.2,2.3-4l18.4-10.6  c1.4-0.8,3.2-0.8,4.6,0L56.7,29c1.2,0.7,2,1.8,2.2,3.1c0.1,0.4,0.6,2.7,3.1,2.7h6.6c1.8,0,3.2-1.4,3.2-3.2  C71.9,29,71.2,26.4,69.9,24.1z"></path>	<g>		<path class="st0" d="M408.8,0.6l0.2,0.2c0.6,0.5,0.6,0.7,0.1,1.2c-2.4,2.4-3.5,5.6-3.5,9.7c0,4,1.2,7.3,3.6,9.7   c0.5,0.5,0.5,0.7-0.1,1.2l-0.2,0.2c-0.6,0.5-0.8,0.5-1.3,0c-2.8-2.9-4.2-6.6-4.2-11.2s1.4-8.3,4.2-11.2   C408,0.1,408.3,0.1,408.8,0.6z"></path>		<path class="st0" d="M411.8,10.7c0-3.1,1.9-5,5.5-5c0.6,0,1.2,0.1,1.9,0.2c0.8,0.2,1,0.4,1,1.2v0.3c0,0.8-0.2,1-1,0.8   c-0.5-0.2-1.1-0.2-1.8-0.2c-2.3,0-3.1,0.8-3.1,2.8v2.3c0,2.1,0.9,2.8,3.3,2.8c0.5,0,1.1-0.1,1.8-0.2c0.8-0.2,1,0,1,0.8v0.3   c0,0.8-0.2,1-1,1.2c-0.7,0.2-1.3,0.2-1.9,0.2c-3.8,0-5.6-1.7-5.6-5V10.7z"></path>		<path class="st0" d="M421.9,12.9v-2.1c0-3.4,1.8-5.2,5.5-5.2c3.8,0,5.5,1.7,5.5,5.2v2.1c0,3.3-1.8,5.2-5.5,5.2   C423.6,18.1,421.9,16.3,421.9,12.9z M430.4,10.8c0-2-0.7-2.9-3-2.9s-3,0.9-3,2.9v2.1c0,2,0.7,2.9,3,2.9c2.3,0,3-0.8,3-2.9V10.8z"></path>		<path class="st0" d="M435,12.9v-2.1c0-3.4,1.8-5.2,5.5-5.2c3.8,0,5.5,1.7,5.5,5.2v2.1c0,3.3-1.8,5.2-5.5,5.2   C436.7,18.1,435,16.3,435,12.9z M443.5,10.8c0-2-0.7-2.9-3-2.9s-3,0.9-3,2.9v2.1c0,2,0.7,2.9,3,2.9c2.3,0,3-0.8,3-2.9V10.8z"></path>		<path class="st0" d="M448.4,10.7c0-3.4,2-5.1,5.5-5.1c3.7,0,5.5,1.6,5.5,5.1v2.1c0,3.5-1.7,5.2-5,5.2c-1.7,0-2.9-0.5-3.5-1.6v5   c0,0.9-0.2,1.1-1.1,1.1h-0.3c-0.9,0-1.1-0.2-1.1-1.1V10.7z M456.9,10.8c0-2-0.6-2.9-3-2.9c-2.3,0-3,0.9-3,2.9v2.1   c0,2,0.7,2.9,3,2.9c2.3,0,3-0.8,3-2.9V10.8z"></path>		<path class="st0" d="M462.3,22.9l-0.2-0.2c-0.6-0.5-0.6-0.7-0.1-1.2c2.4-2.4,3.6-5.7,3.6-9.7c0-4.1-1.2-7.3-3.5-9.7   c-0.5-0.5-0.5-0.7,0.1-1.2l0.2-0.2c0.6-0.5,0.8-0.5,1.3,0c2.8,2.9,4.2,6.6,4.2,11.2s-1.4,8.3-4.2,11.2   C463.2,23.4,462.9,23.4,462.3,22.9z"></path>	</g></g></svg>