<svg xmlns="http://www.w3.org/2000/svg" id="uuid-d5fd547c-1eda-48e3-a829-3a176f7ad84c" data-name="Layer 1" viewBox="0 0 582 80"><defs><style>      .uuid-acad21cb-7baf-4fdc-b894-2e77aa7740ee {        fill: #00d8c5;      }      .uuid-2adf8e8a-72a7-4c3b-86e1-969e98c5fe74 {        fill: #3702b3;      }    </style></defs><rect class="uuid-acad21cb-7baf-4fdc-b894-2e77aa7740ee" x="255.54" y="32.46" width="78.58" height="37"></rect><path class="uuid-2adf8e8a-72a7-4c3b-86e1-969e98c5fe74" d="M81.33,78.3v-20.11c0-6.75-1.7-12.3-5.1-16.65-3.4-4.35-9.38-6.52-17.95-6.52-13.11,0-27.47,6.87-43.06,20.61v22.7H.22L.26,6.32h14.96v37.78c6.61-6.14,13.99-11.46,21.95-15.84,7.27-4.03,15.49-6.15,23.86-6.17,12.55,0,21.57,3.55,27.05,10.65,5.48,7.1,8.23,15.97,8.24,26.61v18.94h-14.98Z"></path><path class="uuid-2adf8e8a-72a7-4c3b-86e1-969e98c5fe74" d="M197.94,78.3s-.11-11.01-.11-16.64c-6.33,5.24-13.3,9.7-20.75,13.28-6.8,3.23-14.27,4.9-21.83,4.89-12.16,0-21.02-3.3-26.58-9.9-5.56-6.6-8.34-15.06-8.34-25.37l.03-21.25,14.96.17v21.66c0,13.98,7.79,20.96,23.38,20.96,12.09,0,25.13-5.36,39.12-16.07v-26.55h15v54.82h-14.89Z"></path><path class="uuid-2adf8e8a-72a7-4c3b-86e1-969e98c5fe74" d="M465.41,69.14c-5.92,3.26-12.85,5.89-20.81,7.87-8.33,2.02-16.89,3.01-25.47,2.96-10,0-19.08-1.07-27.23-3.2-8.16-2.13-14.63-5.34-19.43-9.61-4.81-4.26-7.22-9.5-7.22-15.72,0-5.82,2.3-10.96,6.9-15.43,4.6-4.47,10.96-7.92,19.08-10.36,8.11-2.45,17.37-3.67,27.77-3.67,13.45,0,24.04,1.64,31.78,4.91,7.74,3.28,11.62,7.97,11.64,14.09,0,5.75-3.36,10.06-10.08,12.93-6.72,2.87-16.32,4.31-28.79,4.31-13.12,0-27.75-2.48-43.89-7.45v.23c0,3.65,1.72,6.81,5.16,9.5,3.44,2.68,8.2,4.73,14.28,6.15,6.08,1.44,13.04,2.15,20.87,2.15,15.27,0,28.79-3.14,40.55-9.43l4.89,9.78ZM398.14,34.96c-6.8,1.82-11.8,4.41-15,7.74,6.76,1.83,13.66,3.15,20.64,3.96,6.68.82,13.4,1.25,20.12,1.28,8.15,0,14.11-.52,17.87-1.57,3.76-1.05,5.65-2.89,5.65-5.53,0-2.72-2.4-4.84-7.2-6.35s-11.44-2.27-19.91-2.27c-7.48-.06-14.94.86-22.17,2.74"></path><path class="uuid-2adf8e8a-72a7-4c3b-86e1-969e98c5fe74" d="M581.78,69.14c-5.92,3.26-12.85,5.89-20.81,7.87-8.34,2.02-16.9,3.02-25.49,2.97-10,0-19.08-1.07-27.23-3.2-8.15-2.13-14.64-5.34-19.45-9.62-4.77-4.26-7.16-9.5-7.16-15.72,0-5.82,2.3-10.96,6.9-15.43,4.6-4.47,10.96-7.92,19.08-10.36,8.12-2.45,17.38-3.67,27.77-3.67,13.44,0,24.03,1.63,31.79,4.89,7.76,3.26,11.64,7.96,11.64,14.09,0,5.75-3.36,10.06-10.08,12.93-6.72,2.87-16.32,4.31-28.79,4.31-13.12,0-27.75-2.48-43.89-7.45v.23c0,3.65,1.72,6.81,5.16,9.5,3.44,2.68,8.2,4.74,14.28,6.17,6.08,1.44,13.03,2.15,20.87,2.15,15.27,0,28.78-3.14,40.55-9.43l4.87,9.78ZM514.48,34.96c-6.8,1.82-11.79,4.41-15,7.74,6.76,1.83,13.66,3.15,20.63,3.96,6.68.82,13.42,1.25,20.16,1.28,8.15,0,14.11-.52,17.87-1.57,3.76-1.05,5.64-2.89,5.64-5.53,0-2.72-2.4-4.84-7.2-6.35-4.8-1.51-11.44-2.27-19.91-2.27-7.49-.06-14.95.86-22.19,2.74"></path><path class="uuid-2adf8e8a-72a7-4c3b-86e1-969e98c5fe74" d="M295.45,21.97c-13.22,0-26.76,2.19-36.86,7.04C256.91,9.17,242.25-.35,228.43.03v11.02c11.1-.75,20.74,12.72,14.82,33.54-.6,2.08-.92,4.22-.95,6.37,0,19.64,27.24,29,53.16,29s53.15-8.62,53.15-28.99-27.23-29-53.16-29M256.32,50.96c0-8.49,6.98-13.15,17.18-15.49,4.55,4.56,7.01,9.85,7.01,15.31s-2.36,10.55-6.74,15.05c-10.31-2.84-17.42-7.87-17.42-14.86M287.69,68.17c3.61-5.35,5.73-11.25,5.73-17.39s-2.03-11.86-5.54-17.14c2.51-.13,5.09-.19,7.7-.19,2.01,0,3.99.05,5.92.16,3.51,5.29,5.45,11.12,5.45,17.18s-2.04,12.16-5.73,17.55c-1.84.1-3.73.15-5.66.15-2.68,0-5.32-.11-7.9-.31M314.95,66.39c2.94-4.71,4.54-10.1,4.65-15.6.03-5.38-1.46-10.66-4.29-15.28,10.59,2.57,17.65,7.6,17.65,15.46s-7.21,12.75-18.02,15.42"></path></svg>