<?xml version="1.0" encoding="UTF-8"?>
<svg id="Layer_1" xmlns="http://www.w3.org/2000/svg" viewBox="0 0 949.05 134.39">
  <defs>
    <style>
      .cls-1 {
        fill: #fff;
      }

      .cls-2 {
        fill: #00d8c5;
      }
    </style>
  </defs>
  <g>
    <path class="cls-1" d="M132.34,131.61v-33.83c0-11.36-2.77-20.68-8.32-28-5.55-7.31-15.3-10.96-29.27-10.96-21.41,0-44.83,11.55-70.28,34.65v38.14H0L.07,10.59h24.4v63.5c11.48-10.83,23.43-19.71,35.83-26.62,12.4-6.92,25.38-10.38,38.96-10.38,20.49,0,35.21,5.97,44.15,17.91,8.94,11.94,13.41,26.85,13.41,44.73v31.87h-24.47Z"/>
    <path class="cls-1" d="M322.67,131.61s-.18-18.52-.18-27.96c-11.23,9.4-22.51,16.84-33.87,22.32-11.35,5.48-23.23,8.22-35.63,8.22-19.84,0-34.29-5.55-43.36-16.64-9.07-11.09-13.61-25.32-13.61-42.68l.05-35.73,24.42.29v36.41c0,23.49,12.73,35.24,38.18,35.24,19.71,0,40.98-9.01,63.82-27.02v-44.64s24.47,0,24.47,0v92.17h-24.29Z"/>
    <path class="cls-1" d="M759.16,116.18c-9.66,5.48-20.98,9.89-33.97,13.21-12.99,3.33-26.85,4.99-41.6,4.99-16.32,0-31.13-1.8-44.44-5.38-13.31-3.59-23.88-8.97-31.72-16.15-7.83-7.18-11.75-15.99-11.75-26.43,0-9.79,3.75-18.43,11.26-25.94,7.5-7.5,17.88-13.31,31.13-17.42,13.25-4.11,28.35-6.17,45.32-6.17,21.93,0,39.22,2.74,51.88,8.22,12.66,5.48,18.99,13.38,18.99,23.69,0,9.66-5.48,16.9-16.44,21.73-10.96,4.83-26.62,7.24-46.98,7.24-21.41,0-45.29-4.18-71.65-12.53v.39c0,6.14,2.81,11.45,8.42,15.96,5.61,4.5,13.38,7.96,23.3,10.38,9.92,2.42,21.27,3.62,34.06,3.62,24.93,0,46.98-5.29,66.17-15.86l8.03,16.44ZM649.33,58.72c-11.09,3.07-19.25,7.41-24.47,13.02,10.7,3,21.93,5.22,33.67,6.66,11.75,1.44,22.71,2.15,32.89,2.15,13.31,0,23.03-.88,29.17-2.64,6.13-1.76,9.2-4.86,9.2-9.3s-3.92-8.12-11.75-10.67c-7.83-2.55-18.67-3.82-32.5-3.82-13.05,0-25.13,1.54-36.22,4.6Z"/>
    <path class="cls-1" d="M949.05,116.18c-9.66,5.48-20.98,9.89-33.97,13.21-12.99,3.33-26.85,4.99-41.6,4.99-16.32,0-31.13-1.8-44.44-5.38-13.31-3.59-23.88-8.97-31.72-16.15-7.83-7.18-11.75-15.99-11.75-26.43,0-9.79,3.75-18.43,11.26-25.94,7.5-7.5,17.88-13.31,31.13-17.42,13.25-4.11,28.35-6.17,45.32-6.17,21.93,0,39.22,2.74,51.88,8.22,12.66,5.48,18.99,13.38,18.99,23.69,0,9.66-5.48,16.9-16.44,21.73-10.96,4.83-26.62,7.24-46.98,7.24-21.41,0-45.29-4.18-71.65-12.53v.39c0,6.14,2.81,11.45,8.42,15.96,5.61,4.5,13.38,7.96,23.3,10.38,9.92,2.42,21.27,3.62,34.06,3.62,24.93,0,46.98-5.29,66.17-15.86l8.03,16.44ZM839.22,58.72c-11.09,3.07-19.25,7.41-24.47,13.02,10.7,3,21.93,5.22,33.67,6.66,11.75,1.44,22.71,2.15,32.89,2.15,13.31,0,23.03-.88,29.17-2.64,6.13-1.76,9.2-4.86,9.2-9.3s-3.92-8.12-11.75-10.67c-7.83-2.55-18.67-3.82-32.5-3.82-13.05,0-25.13,1.54-36.22,4.6Z"/>
  </g>
  <path class="cls-1" d="M481.78,36.88c-21.57,0-43.66,3.67-60.15,11.85C418.88,15.38,394.97-.63,372.41.02v18.51c18.12-1.25,33.85,21.38,24.19,56.39-.3,1.09-1.56,5.74-1.56,10.72,0,33.01,44.46,48.75,86.74,48.75s86.74-14.47,86.74-48.75-44.44-48.75-86.74-48.75ZM417.93,85.61c0-14.27,11.38-22.11,27.99-26.05,7.43,7.66,11.44,16.55,11.44,25.73s-3.84,17.73-11,25.29c-16.83-4.77-28.43-13.25-28.43-24.98ZM469.08,114.54c5.89-8.99,9.38-18.91,9.38-29.24s-3.31-19.94-9.04-28.83c4.09-.22,8.3-.32,12.56-.32,3.29,0,6.51.09,9.65.26,5.72,8.9,8.89,18.69,8.89,28.88s-3.33,20.45-9.31,29.51c-3.01.17-6.1.26-9.24.26-4.38,0-8.69-.18-12.9-.53ZM513.63,111.53c5.99-10,7.59-20.04,7.59-26.23,0-6.55-1.23-16.16-6.98-25.67,17.29,4.32,28.8,12.78,28.8,25.99s-11.77,21.43-29.4,25.92Z"/>
  <path class="cls-2" d="M417.93,85.61c0-14.27,11.38-22.11,27.99-26.05,7.43,7.66,11.44,16.55,11.44,25.73s-3.84,17.73-11,25.29c-16.83-4.77-28.43-13.25-28.43-24.98ZM469.08,114.54c5.89-8.99,9.38-18.91,9.38-29.24s-3.31-19.94-9.04-28.83c4.09-.22,8.3-.32,12.56-.32,3.29,0,6.51.09,9.65.26,5.72,8.9,8.89,18.69,8.89,28.88s-3.33,20.45-9.31,29.51c-3.01.17-6.1.26-9.24.26-4.38,0-8.69-.18-12.9-.53ZM513.63,111.53c5.99-10,7.59-20.04,7.59-26.23,0-6.55-1.23-16.16-6.98-25.67,17.29,4.32,28.8,12.78,28.8,25.99s-11.77,21.43-29.4,25.92Z"/>
</svg>